{"title":"Journey from the Fall 2006 DVDRip XviD AC3 5.1","uid":8187803,"size":1505347814,"categoryP":"video","categoryS":"movies","magnet":"?xt=urn:btih:11a30efd6a61c6828b2a8e29cd4291ece1967618&amp;dn=Journey+from+the+Fall+2006+DVDRip+XviD+AC3+5.1&amp;tr=udp%3A%2F%2Ftracker.openbittorrent.com%3A80&amp;tr=udp%3A%2F%2Fopen.demonii.com%3A1337&amp;tr=udp%3A%2F%2Ftracker.coppersurfer.tk%3A6969&amp;tr=udp%3A%2F%2Fexodus.desync.com%3A6969","seeders":3,"leechers":3,"uploader":"movieZ.freak","files":4,"time":1361761661,"description":" &lt;a href=&quot;http://www.imdb.com/title/tt0433398/&quot; rel=&quot;nofollow&quot; target=&quot;_NEW&quot;&gt;http://www.imdb.com/title/tt0433398/&lt;/a&gt;\n &lt;a href=&quot;\nhttp://www.rottentomatoes.com/m/journey_from_the_fall/&quot; rel=&quot;nofollow&quot; target=&quot;_NEW&quot;&gt;\nhttp://www.rottentomatoes.com/m/journey_from_the_fall/&lt;/a&gt;\n &lt;a href=&quot;\nhttp://en.wikipedia.org/wiki/Journey_from_the_Fall&quot; rel=&quot;nofollow&quot; target=&quot;_NEW&quot;&gt;\nhttp://en.wikipedia.org/wiki/Journey_from_the_Fall&lt;/a&gt;\n\n\nLanguage: Vietnamese, English \n\nDirector: Ham Tran\n\nSubtitle: English\n\n\nPLOT:\n---------\nThe film traces the story of a family's struggle for survival in the aftermath of the Fall of Saigon on April 30, 1975 to North Vietnam's communist regime. After her South Vietnamese Army husband Long, is imprisoned in a North Vietnamese reeducation camp, Mai, her son Lai, and her mother-in-law escape Vietnam by boat in the hopes of starting a new life in Southern  California. Believing his family is dead, Long gives up in the face of brutal conditions, while Mai struggles to keep her family from crumbling under the pressures of life in a new country. \nWhen Long learns his family is alive in America, he is reinvigorated and decides he must join them at any cost.\n\n   General\n--------------\n      Format : AVI\n      Format/Info : Audio Video Interleave\n      File size : 1.37 GiB\n      Duration : 2h 15mn\n      Overall bit rate : 1 449 Kbps\n      Writing application : Nandub v1.0rc2\n      Writing library : Boilsoft AVI tool build 30012/release\n\n   Video\n------------\n      Format : MPEG-4 Visual\n      Format profile : Advanced Simple@L5\n      Format settings, BVOP : 2\n      Format settings, QPel : No\n      Format settings, GMC : No warppoints\n      Format settings, Matrix : Default (H.263)\n      Muxing mode : Packed bitstream\n      Codec ID : XVID\n      Codec ID/Hint : XviD\n      Duration : 2h 15mn\n      Bit rate : 991 Kbps\n      Width : 624 pixels\n      Height : 336 pixels\n      Display aspect ratio : 1.85:1\n      Frame rate : 23.976 fps\n      Color space : YUV\n      Chroma subsampling : 4:2:0\n      Bit depth : 8 bits\n      Scan type : Progressive\n      Compression mode : Lossy\n      Bits/(Pixel*Frame) : 0.197\n      Stream size : 957 MiB (68%)\n      Writing library : XviD 1.2.0.dev47 (UTC 2006-11-01)\n\n   Audio\n--------------\n      Format : AC-3\n      Format/Info : Audio Coding 3\n      Mode extension : CM (complete main)\n      Format settings, Endianness : Big\n      Codec ID : 2000\n      Duration : 2h 15mn\n      Bit rate mode : Constant\n      Bit rate : 448 Kbps\n      Channel(s) : 6 channels\n      Channel positions : Front: L C R, Side: L R, LFE\n      Sampling rate : 48.0 KHz\n      Bit depth : 16 bits\n      Compression mode : Lossy\n      Stream size : 433 MiB (31%)\n      Alignment : Split accross interleaves\n      Interleave, duration : 42 ms (1.00 video frame)\n      Interleave, preload duration : 500 ms","torrent":{"xt":"urn:btih:11a30efd6a61c6828b2a8e29cd4291ece1967618","amp;dn":"Journey+from+the+Fall+2006+DVDRip+XviD+AC3+5.1","amp;tr":["udp%3A%2F%2Ftracker.openbittorrent.com%3A80","udp%3A%2F%2Fopen.demonii.com%3A1337","udp%3A%2F%2Ftracker.coppersurfer.tk%3A6969","udp%3A%2F%2Fexodus.desync.com%3A6969"],"infoHash":"11a30efd6a61c6828b2a8e29cd4291ece1967618","infoHashBuffer":{"type":"Buffer","data":[17,163,14,253,106,97,198,130,139,42,142,41,205,66,145,236,225,150,118,24]},"announce":[],"urlList":[]}}